<?xml version="1.0" encoding="UTF-8" standalone="no"?>
<!DOCTYPE svg PUBLIC "-//W3C//DTD SVG 1.1//EN"
 "http://www.w3.org/Graphics/SVG/1.1/DTD/svg11.dtd">
<!-- Generated by graphviz version 2.47.0 (20210316.0004)
 -->
<!-- Title: dependencies Pages: 1 -->
<svg width="554pt" height="284pt"
 viewBox="0.00 0.00 554.00 284.00" xmlns="http://www.w3.org/2000/svg" xmlns:xlink="http://www.w3.org/1999/xlink">
<g id="graph0" class="graph" transform="scale(1 1) rotate(0) translate(4 280)">
<title>dependencies</title>
<polygon fill="white" stroke="transparent" points="-4,4 -4,-280 550,-280 550,4 -4,4"/>
<text text-anchor="start" x="252.01" y="-42.4" font-family="Times-12" font-weight="bold" font-size="14.00">Legend</text>
<polygon fill="#ffffb3" stroke="transparent" points="39,-10 39,-30 59,-30 59,-10 39,-10"/>
<text text-anchor="start" x="62.63" y="-15.4" font-family="Times-12" font-size="14.00"> &#160;Declarations</text>
<polygon fill="#8dd3c7" stroke="transparent" points="152,-10 152,-30 172,-30 172,-10 152,-10"/>
<text text-anchor="start" x="175.73" y="-15.4" font-family="Times-12" font-size="14.00"> &#160;Module</text>
<polygon fill="#80b1d3" stroke="transparent" points="238,-10 238,-30 258,-30 258,-10 238,-10"/>
<text text-anchor="start" x="261.78" y="-15.4" font-family="Times-12" font-size="14.00"> &#160;Bootstrap</text>
<polygon fill="#fdb462" stroke="transparent" points="335,-10 335,-30 355,-30 355,-10 335,-10"/>
<text text-anchor="start" x="358.67" y="-15.4" font-family="Times-12" font-size="14.00"> &#160;Providers</text>
<polygon fill="#fb8072" stroke="transparent" points="431,-10 431,-30 451,-30 451,-10 431,-10"/>
<text text-anchor="start" x="454.73" y="-15.4" font-family="Times-12" font-size="14.00"> &#160;Exports</text>
<g id="clust1" class="cluster">
<title>cluster_AuthenticationModule</title>
<polygon fill="none" stroke="black" stroke-dasharray="1,5" points="8,-70 8,-268 538,-268 538,-70 8,-70"/>
</g>
<g id="clust3" class="cluster">
<title>cluster_AuthenticationModule_imports</title>
<polygon fill="none" stroke="black" points="324,-78 324,-130 530,-130 530,-78 324,-78"/>
</g>
<g id="clust4" class="cluster">
<title>cluster_AuthenticationModule_exports</title>
<polygon fill="none" stroke="black" points="198,-208 198,-260 414,-260 414,-208 198,-208"/>
</g>
<g id="clust6" class="cluster">
<title>cluster_AuthenticationModule_providers</title>
<polygon fill="none" stroke="black" points="16,-78 16,-130 316,-130 316,-78 16,-78"/>
</g>
<!-- CoreModule -->
<g id="node1" class="node">
<title>CoreModule</title>
<polygon fill="#8dd3c7" stroke="black" points="522.26,-122 519.26,-126 498.26,-126 495.26,-122 435.74,-122 435.74,-86 522.26,-86 522.26,-122"/>
<text text-anchor="middle" x="479" y="-99.8" font-family="Times,serif" font-size="14.00">CoreModule</text>
</g>
<!-- AuthenticationModule -->
<g id="node3" class="node">
<title>AuthenticationModule</title>
<polygon fill="#8dd3c7" stroke="black" points="373.25,-187 370.25,-191 349.25,-191 346.25,-187 230.75,-187 230.75,-151 373.25,-151 373.25,-187"/>
<text text-anchor="middle" x="302" y="-164.8" font-family="Times,serif" font-size="14.00">AuthenticationModule</text>
</g>
<!-- CoreModule&#45;&gt;AuthenticationModule -->
<g id="edge1" class="edge">
<title>CoreModule&#45;&gt;AuthenticationModule</title>
<path fill="none" stroke="black" d="M479,-122.11C479,-141.34 479,-169 479,-169 479,-169 383.48,-169 383.48,-169"/>
<polygon fill="black" stroke="black" points="383.48,-165.5 373.48,-169 383.48,-172.5 383.48,-165.5"/>
</g>
<!-- UserModule -->
<g id="node2" class="node">
<title>UserModule</title>
<polygon fill="#8dd3c7" stroke="black" points="417.98,-122 414.98,-126 393.98,-126 390.98,-122 332.02,-122 332.02,-86 417.98,-86 417.98,-122"/>
<text text-anchor="middle" x="375" y="-99.8" font-family="Times,serif" font-size="14.00">UserModule</text>
</g>
<!-- UserModule&#45;&gt;AuthenticationModule -->
<g id="edge2" class="edge">
<title>UserModule&#45;&gt;AuthenticationModule</title>
<path fill="none" stroke="black" d="M352.69,-122.11C352.69,-122.11 352.69,-140.99 352.69,-140.99"/>
<polygon fill="black" stroke="black" points="349.19,-140.99 352.69,-150.99 356.19,-140.99 349.19,-140.99"/>
</g>
<!-- BcryptService  -->
<g id="node4" class="node">
<title>BcryptService </title>
<polygon fill="#fb8072" stroke="black" points="405.58,-252 306.42,-252 306.42,-216 405.58,-216 405.58,-252"/>
<text text-anchor="middle" x="356" y="-229.8" font-family="Times,serif" font-size="14.00">BcryptService </text>
</g>
<!-- AuthenticationModule&#45;&gt;BcryptService  -->
<g id="edge3" class="edge">
<title>AuthenticationModule&#45;&gt;BcryptService </title>
<path fill="none" stroke="black" stroke-dasharray="5,2" d="M339.79,-187.11C339.79,-187.11 339.79,-205.99 339.79,-205.99"/>
<polygon fill="black" stroke="black" points="336.29,-205.99 339.79,-215.99 343.29,-205.99 336.29,-205.99"/>
</g>
<!-- JwtStorage  -->
<g id="node5" class="node">
<title>JwtStorage </title>
<polygon fill="#fb8072" stroke="black" points="287.71,-252 206.29,-252 206.29,-216 287.71,-216 287.71,-252"/>
<text text-anchor="middle" x="247" y="-229.8" font-family="Times,serif" font-size="14.00">JwtStorage </text>
</g>
<!-- AuthenticationModule&#45;&gt;JwtStorage  -->
<g id="edge4" class="edge">
<title>AuthenticationModule&#45;&gt;JwtStorage </title>
<path fill="none" stroke="black" stroke-dasharray="5,2" d="M259.24,-187.11C259.24,-187.11 259.24,-205.99 259.24,-205.99"/>
<polygon fill="black" stroke="black" points="255.74,-205.99 259.24,-215.99 262.74,-205.99 255.74,-205.99"/>
</g>
<!-- DatabaseStrategy -->
<g id="node6" class="node">
<title>DatabaseStrategy</title>
<ellipse fill="#fdb462" stroke="black" cx="229" cy="-104" rx="78.71" ry="18"/>
<text text-anchor="middle" x="229" y="-99.8" font-family="Times,serif" font-size="14.00">DatabaseStrategy</text>
</g>
<!-- DatabaseStrategy&#45;&gt;AuthenticationModule -->
<g id="edge5" class="edge">
<title>DatabaseStrategy&#45;&gt;AuthenticationModule</title>
<path fill="none" stroke="black" d="M269.11,-119.73C269.11,-119.73 269.11,-140.65 269.11,-140.65"/>
<polygon fill="black" stroke="black" points="265.61,-140.65 269.11,-150.65 272.61,-140.65 265.61,-140.65"/>
</g>
<!-- JwtStorage -->
<g id="node7" class="node">
<title>JwtStorage</title>
<ellipse fill="#fdb462" stroke="black" cx="78" cy="-104" rx="53.89" ry="18"/>
<text text-anchor="middle" x="78" y="-99.8" font-family="Times,serif" font-size="14.00">JwtStorage</text>
</g>
<!-- JwtStorage&#45;&gt;AuthenticationModule -->
<g id="edge6" class="edge">
<title>JwtStorage&#45;&gt;AuthenticationModule</title>
<path fill="none" stroke="black" d="M78,-122.11C78,-141.34 78,-169 78,-169 78,-169 220.51,-169 220.51,-169"/>
<polygon fill="black" stroke="black" points="220.51,-172.5 230.51,-169 220.51,-165.5 220.51,-172.5"/>
</g>
</g>
</svg>
