<?xml version="1.0" encoding="UTF-8" standalone="no"?>
<!DOCTYPE svg PUBLIC "-//W3C//DTD SVG 1.1//EN"
 "http://www.w3.org/Graphics/SVG/1.1/DTD/svg11.dtd">
<!-- Generated by graphviz version 2.47.0 (20210316.0004)
 -->
<!-- Title: dependencies Pages: 1 -->
<svg width="1343pt" height="211pt"
 viewBox="0.00 0.00 1343.00 211.00" xmlns="http://www.w3.org/2000/svg" xmlns:xlink="http://www.w3.org/1999/xlink">
<g id="graph0" class="graph" transform="scale(1 1) rotate(0) translate(4 207)">
<title>dependencies</title>
<polygon fill="white" stroke="transparent" points="-4,4 -4,-207 1339,-207 1339,4 -4,4"/>
<text text-anchor="start" x="646.51" y="-42.4" font-family="Times-12" font-weight="bold" font-size="14.00">Legend</text>
<polygon fill="#ffffb3" stroke="transparent" points="433.5,-10 433.5,-30 453.5,-30 453.5,-10 433.5,-10"/>
<text text-anchor="start" x="457.13" y="-15.4" font-family="Times-12" font-size="14.00"> &#160;Declarations</text>
<polygon fill="#8dd3c7" stroke="transparent" points="546.5,-10 546.5,-30 566.5,-30 566.5,-10 546.5,-10"/>
<text text-anchor="start" x="570.23" y="-15.4" font-family="Times-12" font-size="14.00"> &#160;Module</text>
<polygon fill="#80b1d3" stroke="transparent" points="632.5,-10 632.5,-30 652.5,-30 652.5,-10 632.5,-10"/>
<text text-anchor="start" x="656.28" y="-15.4" font-family="Times-12" font-size="14.00"> &#160;Bootstrap</text>
<polygon fill="#fdb462" stroke="transparent" points="729.5,-10 729.5,-30 749.5,-30 749.5,-10 729.5,-10"/>
<text text-anchor="start" x="753.17" y="-15.4" font-family="Times-12" font-size="14.00"> &#160;Providers</text>
<polygon fill="#fb8072" stroke="transparent" points="825.5,-10 825.5,-30 845.5,-30 845.5,-10 825.5,-10"/>
<text text-anchor="start" x="849.23" y="-15.4" font-family="Times-12" font-size="14.00"> &#160;Exports</text>
<g id="clust1" class="cluster">
<title>cluster_AppModule</title>
<polygon fill="none" stroke="black" stroke-dasharray="1,5" points="8,-70 8,-195 1327,-195 1327,-70 8,-70"/>
</g>
<g id="clust6" class="cluster">
<title>cluster_AppModule_providers</title>
<polygon fill="none" stroke="black" points="1189,-78 1189,-130 1319,-130 1319,-78 1189,-78"/>
</g>
<g id="clust3" class="cluster">
<title>cluster_AppModule_imports</title>
<polygon fill="none" stroke="black" points="16,-78 16,-130 1181,-130 1181,-78 16,-78"/>
</g>
<!-- AddressModule -->
<g id="node1" class="node">
<title>AddressModule</title>
<polygon fill="#8dd3c7" stroke="black" points="1172.92,-122 1169.92,-126 1148.92,-126 1145.92,-122 1067.08,-122 1067.08,-86 1172.92,-86 1172.92,-122"/>
<text text-anchor="middle" x="1120" y="-99.8" font-family="Times,serif" font-size="14.00">AddressModule</text>
</g>
<!-- AppModule -->
<g id="node10" class="node">
<title>AppModule</title>
<polygon fill="#8dd3c7" stroke="black" points="684.66,-187 681.66,-191 660.66,-191 657.66,-187 601.34,-187 601.34,-151 684.66,-151 684.66,-187"/>
<text text-anchor="middle" x="643" y="-164.8" font-family="Times,serif" font-size="14.00">AppModule</text>
</g>
<!-- AddressModule&#45;&gt;AppModule -->
<g id="edge1" class="edge">
<title>AddressModule&#45;&gt;AppModule</title>
<path fill="none" stroke="black" d="M1120,-122.13C1120,-142.57 1120,-173 1120,-173 1120,-173 694.91,-173 694.91,-173"/>
<polygon fill="black" stroke="black" points="694.91,-169.5 684.91,-173 694.91,-176.5 694.91,-169.5"/>
</g>
<!-- AuthenticationModule -->
<g id="node2" class="node">
<title>AuthenticationModule</title>
<polygon fill="#8dd3c7" stroke="black" points="1049.25,-122 1046.25,-126 1025.25,-126 1022.25,-122 906.75,-122 906.75,-86 1049.25,-86 1049.25,-122"/>
<text text-anchor="middle" x="978" y="-99.8" font-family="Times,serif" font-size="14.00">AuthenticationModule</text>
</g>
<!-- AuthenticationModule&#45;&gt;AppModule -->
<g id="edge2" class="edge">
<title>AuthenticationModule&#45;&gt;AppModule</title>
<path fill="none" stroke="black" d="M978,-122.27C978,-140.56 978,-166 978,-166 978,-166 694.75,-166 694.75,-166"/>
<polygon fill="black" stroke="black" points="694.75,-162.5 684.75,-166 694.75,-169.5 694.75,-162.5"/>
</g>
<!-- CategoryModule -->
<g id="node3" class="node">
<title>CategoryModule</title>
<polygon fill="#8dd3c7" stroke="black" points="888.37,-122 885.37,-126 864.37,-126 861.37,-122 777.63,-122 777.63,-86 888.37,-86 888.37,-122"/>
<text text-anchor="middle" x="833" y="-99.8" font-family="Times,serif" font-size="14.00">CategoryModule</text>
</g>
<!-- CategoryModule&#45;&gt;AppModule -->
<g id="edge3" class="edge">
<title>CategoryModule&#45;&gt;AppModule</title>
<path fill="none" stroke="black" d="M833,-122.01C833,-138.05 833,-159 833,-159 833,-159 694.7,-159 694.7,-159"/>
<polygon fill="black" stroke="black" points="694.7,-155.5 684.7,-159 694.7,-162.5 694.7,-155.5"/>
</g>
<!-- CoursesModule -->
<g id="node4" class="node">
<title>CoursesModule</title>
<polygon fill="#8dd3c7" stroke="black" points="759.15,-122 756.15,-126 735.15,-126 732.15,-122 654.85,-122 654.85,-86 759.15,-86 759.15,-122"/>
<text text-anchor="middle" x="707" y="-99.8" font-family="Times,serif" font-size="14.00">CoursesModule</text>
</g>
<!-- CoursesModule&#45;&gt;AppModule -->
<g id="edge4" class="edge">
<title>CoursesModule&#45;&gt;AppModule</title>
<path fill="none" stroke="black" d="M669.75,-122.11C669.75,-122.11 669.75,-140.99 669.75,-140.99"/>
<polygon fill="black" stroke="black" points="666.25,-140.99 669.75,-150.99 673.25,-140.99 666.25,-140.99"/>
</g>
<!-- EducationModule -->
<g id="node5" class="node">
<title>EducationModule</title>
<polygon fill="#8dd3c7" stroke="black" points="637.31,-122 634.31,-126 613.31,-126 610.31,-122 520.69,-122 520.69,-86 637.31,-86 637.31,-122"/>
<text text-anchor="middle" x="579" y="-99.8" font-family="Times,serif" font-size="14.00">EducationModule</text>
</g>
<!-- EducationModule&#45;&gt;AppModule -->
<g id="edge5" class="edge">
<title>EducationModule&#45;&gt;AppModule</title>
<path fill="none" stroke="black" d="M619.16,-122.11C619.16,-122.11 619.16,-140.99 619.16,-140.99"/>
<polygon fill="black" stroke="black" points="615.66,-140.99 619.16,-150.99 622.66,-140.99 615.66,-140.99"/>
</g>
<!-- ExperienceModule -->
<g id="node6" class="node">
<title>ExperienceModule</title>
<polygon fill="#8dd3c7" stroke="black" points="503.01,-122 500.01,-126 479.01,-126 476.01,-122 380.99,-122 380.99,-86 503.01,-86 503.01,-122"/>
<text text-anchor="middle" x="442" y="-99.8" font-family="Times,serif" font-size="14.00">ExperienceModule</text>
</g>
<!-- ExperienceModule&#45;&gt;AppModule -->
<g id="edge6" class="edge">
<title>ExperienceModule&#45;&gt;AppModule</title>
<path fill="none" stroke="black" d="M442,-122.01C442,-138.05 442,-159 442,-159 442,-159 590.86,-159 590.86,-159"/>
<polygon fill="black" stroke="black" points="590.86,-162.5 600.86,-159 590.86,-155.5 590.86,-162.5"/>
</g>
<!-- ImageModule -->
<g id="node7" class="node">
<title>ImageModule</title>
<polygon fill="#8dd3c7" stroke="black" points="362.03,-122 359.03,-126 338.03,-126 335.03,-122 267.97,-122 267.97,-86 362.03,-86 362.03,-122"/>
<text text-anchor="middle" x="315" y="-99.8" font-family="Times,serif" font-size="14.00">ImageModule</text>
</g>
<!-- ImageModule&#45;&gt;AppModule -->
<g id="edge7" class="edge">
<title>ImageModule&#45;&gt;AppModule</title>
<path fill="none" stroke="black" d="M315,-122.27C315,-140.56 315,-166 315,-166 315,-166 591.13,-166 591.13,-166"/>
<polygon fill="black" stroke="black" points="591.13,-169.5 601.13,-166 591.13,-162.5 591.13,-169.5"/>
</g>
<!-- UserModule -->
<g id="node8" class="node">
<title>UserModule</title>
<polygon fill="#8dd3c7" stroke="black" points="249.98,-122 246.98,-126 225.98,-126 222.98,-122 164.02,-122 164.02,-86 249.98,-86 249.98,-122"/>
<text text-anchor="middle" x="207" y="-99.8" font-family="Times,serif" font-size="14.00">UserModule</text>
</g>
<!-- UserModule&#45;&gt;AppModule -->
<g id="edge8" class="edge">
<title>UserModule&#45;&gt;AppModule</title>
<path fill="none" stroke="black" d="M207,-122.13C207,-142.57 207,-173 207,-173 207,-173 591.19,-173 591.19,-173"/>
<polygon fill="black" stroke="black" points="591.19,-176.5 601.19,-173 591.19,-169.5 591.19,-176.5"/>
</g>
<!-- UserdetailsModule -->
<g id="node9" class="node">
<title>UserdetailsModule</title>
<polygon fill="#8dd3c7" stroke="black" points="146.02,-122 143.02,-126 122.02,-126 119.02,-122 23.98,-122 23.98,-86 146.02,-86 146.02,-122"/>
<text text-anchor="middle" x="85" y="-99.8" font-family="Times,serif" font-size="14.00">UserdetailsModule</text>
</g>
<!-- UserdetailsModule&#45;&gt;AppModule -->
<g id="edge9" class="edge">
<title>UserdetailsModule&#45;&gt;AppModule</title>
<path fill="none" stroke="black" d="M85,-122.01C85,-144.49 85,-180 85,-180 85,-180 591.06,-180 591.06,-180"/>
<polygon fill="black" stroke="black" points="591.06,-183.5 601.06,-180 591.06,-176.5 591.06,-183.5"/>
</g>
<!-- AppService -->
<g id="node11" class="node">
<title>AppService</title>
<ellipse fill="#fdb462" stroke="black" cx="1254" cy="-104" rx="56.74" ry="18"/>
<text text-anchor="middle" x="1254" y="-99.8" font-family="Times,serif" font-size="14.00">AppService</text>
</g>
<!-- AppService&#45;&gt;AppModule -->
<g id="edge10" class="edge">
<title>AppService&#45;&gt;AppModule</title>
<path fill="none" stroke="black" d="M1254,-122.01C1254,-144.49 1254,-180 1254,-180 1254,-180 695,-180 695,-180"/>
<polygon fill="black" stroke="black" points="695,-176.5 685,-180 695,-183.5 695,-176.5"/>
</g>
</g>
</svg>
