<?xml version="1.0" encoding="UTF-8" standalone="no"?>
<!DOCTYPE svg PUBLIC "-//W3C//DTD SVG 1.1//EN"
 "http://www.w3.org/Graphics/SVG/1.1/DTD/svg11.dtd">
<!-- Generated by graphviz version 2.47.0 (20210316.0004)
 -->
<!-- Title: dependencies Pages: 1 -->
<svg width="2153pt" height="439pt"
 viewBox="0.00 0.00 2153.00 439.00" xmlns="http://www.w3.org/2000/svg" xmlns:xlink="http://www.w3.org/1999/xlink">
<g id="graph0" class="graph" transform="scale(1 1) rotate(0) translate(4 435)">
<title>dependencies</title>
<polygon fill="white" stroke="transparent" points="-4,4 -4,-435 2149,-435 2149,4 -4,4"/>
<text text-anchor="start" x="1051.51" y="-42.4" font-family="Times-12" font-weight="bold" font-size="14.00">Legend</text>
<polygon fill="#ffffb3" stroke="transparent" points="838.5,-10 838.5,-30 858.5,-30 858.5,-10 838.5,-10"/>
<text text-anchor="start" x="862.13" y="-15.4" font-family="Times-12" font-size="14.00"> &#160;Declarations</text>
<polygon fill="#8dd3c7" stroke="transparent" points="951.5,-10 951.5,-30 971.5,-30 971.5,-10 951.5,-10"/>
<text text-anchor="start" x="975.23" y="-15.4" font-family="Times-12" font-size="14.00"> &#160;Module</text>
<polygon fill="#80b1d3" stroke="transparent" points="1037.5,-10 1037.5,-30 1057.5,-30 1057.5,-10 1037.5,-10"/>
<text text-anchor="start" x="1061.28" y="-15.4" font-family="Times-12" font-size="14.00"> &#160;Bootstrap</text>
<polygon fill="#fdb462" stroke="transparent" points="1134.5,-10 1134.5,-30 1154.5,-30 1154.5,-10 1134.5,-10"/>
<text text-anchor="start" x="1158.17" y="-15.4" font-family="Times-12" font-size="14.00"> &#160;Providers</text>
<polygon fill="#fb8072" stroke="transparent" points="1230.5,-10 1230.5,-30 1250.5,-30 1250.5,-10 1230.5,-10"/>
<text text-anchor="start" x="1254.23" y="-15.4" font-family="Times-12" font-size="14.00"> &#160;Exports</text>
<g id="clust1" class="cluster">
<title>cluster_AddressModule</title>
<polygon fill="none" stroke="black" stroke-dasharray="1,5" points="8,-222 8,-358 184,-358 184,-222 8,-222"/>
</g>
<g id="clust6" class="cluster">
<title>cluster_AddressModule_providers</title>
<polygon fill="none" stroke="black" points="16,-230 16,-282 176,-282 176,-230 16,-230"/>
</g>
<g id="clust7" class="cluster">
<title>cluster_AppModule</title>
<polygon fill="none" stroke="black" stroke-dasharray="1,5" points="460,-146 460,-423 1391,-423 1391,-146 460,-146"/>
</g>
<g id="clust9" class="cluster">
<title>cluster_AppModule_imports</title>
<polygon fill="none" stroke="black" points="606,-154 606,-358 1383,-358 1383,-154 606,-154"/>
</g>
<g id="clust12" class="cluster">
<title>cluster_AppModule_providers</title>
<polygon fill="none" stroke="black" points="468,-306 468,-358 598,-358 598,-306 468,-306"/>
</g>
<g id="clust13" class="cluster">
<title>cluster_AuthenticationModule</title>
<polygon fill="none" stroke="black" stroke-dasharray="1,5" points="1399,-222 1399,-290 2049,-290 2049,-222 1399,-222"/>
</g>
<g id="clust15" class="cluster">
<title>cluster_AuthenticationModule_imports</title>
<polygon fill="none" stroke="black" points="1939,-230 1939,-282 2041,-282 2041,-230 1939,-230"/>
</g>
<g id="clust16" class="cluster">
<title>cluster_AuthenticationModule_exports</title>
<polygon fill="none" stroke="black" points="1715,-230 1715,-282 1931,-282 1931,-230 1715,-230"/>
</g>
<g id="clust18" class="cluster">
<title>cluster_AuthenticationModule_providers</title>
<polygon fill="none" stroke="black" points="1407,-230 1407,-282 1707,-282 1707,-230 1407,-230"/>
</g>
<g id="clust19" class="cluster">
<title>cluster_CategoryModule</title>
<polygon fill="none" stroke="black" stroke-dasharray="1,5" points="456,-70 456,-138 638,-138 638,-70 456,-70"/>
</g>
<g id="clust24" class="cluster">
<title>cluster_CategoryModule_providers</title>
<polygon fill="none" stroke="black" points="464,-78 464,-130 630,-130 630,-78 464,-78"/>
</g>
<g id="clust25" class="cluster">
<title>cluster_CoreModule</title>
<polygon fill="none" stroke="black" stroke-dasharray="1,5" points="1843,-146 1843,-214 2137,-214 2137,-146 1843,-146"/>
</g>
<g id="clust30" class="cluster">
<title>cluster_CoreModule_providers</title>
<polygon fill="none" stroke="black" points="1851,-154 1851,-206 2129,-206 2129,-154 1851,-154"/>
</g>
<g id="clust31" class="cluster">
<title>cluster_CoursesModule</title>
<polygon fill="none" stroke="black" stroke-dasharray="1,5" points="646,-70 646,-138 820,-138 820,-70 646,-70"/>
</g>
<g id="clust36" class="cluster">
<title>cluster_CoursesModule_providers</title>
<polygon fill="none" stroke="black" points="654,-78 654,-130 812,-130 812,-78 654,-78"/>
</g>
<g id="clust37" class="cluster">
<title>cluster_EducationModule</title>
<polygon fill="none" stroke="black" stroke-dasharray="1,5" points="828,-70 828,-138 1018,-138 1018,-70 828,-70"/>
</g>
<g id="clust42" class="cluster">
<title>cluster_EducationModule_providers</title>
<polygon fill="none" stroke="black" points="836,-78 836,-130 1010,-130 1010,-78 836,-78"/>
</g>
<g id="clust43" class="cluster">
<title>cluster_ExperienceModule</title>
<polygon fill="none" stroke="black" stroke-dasharray="1,5" points="1026,-70 1026,-138 1224,-138 1224,-70 1026,-70"/>
</g>
<g id="clust48" class="cluster">
<title>cluster_ExperienceModule_providers</title>
<polygon fill="none" stroke="black" points="1034,-78 1034,-130 1216,-130 1216,-78 1034,-78"/>
</g>
<g id="clust61" class="cluster">
<title>cluster_UserdetailsModule</title>
<polygon fill="none" stroke="black" stroke-dasharray="1,5" points="1232,-70 1232,-138 1430,-138 1430,-70 1232,-70"/>
</g>
<g id="clust66" class="cluster">
<title>cluster_UserdetailsModule_providers</title>
<polygon fill="none" stroke="black" points="1240,-78 1240,-130 1422,-130 1422,-78 1240,-78"/>
</g>
<g id="clust67" class="cluster">
<title>cluster_UserModule</title>
<polygon fill="none" stroke="black" stroke-dasharray="1,5" points="192,-298 192,-366 452,-366 452,-298 192,-298"/>
</g>
<g id="clust70" class="cluster">
<title>cluster_UserModule_exports</title>
<polygon fill="none" stroke="black" points="340,-306 340,-358 444,-358 444,-306 340,-306"/>
</g>
<g id="clust72" class="cluster">
<title>cluster_UserModule_providers</title>
<polygon fill="none" stroke="black" points="200,-306 200,-358 332,-358 332,-306 200,-306"/>
</g>
<!-- AddressService -->
<g id="node1" class="node">
<title>AddressService</title>
<ellipse fill="#fdb462" stroke="black" cx="96" cy="-256" rx="71.77" ry="18"/>
<text text-anchor="middle" x="96" y="-251.8" font-family="Times,serif" font-size="14.00">AddressService</text>
</g>
<!-- AddressModule -->
<g id="node2" class="node">
<title>AddressModule</title>
<polygon fill="#8dd3c7" stroke="black" points="161.92,-350 158.92,-354 137.92,-354 134.92,-350 56.08,-350 56.08,-314 161.92,-314 161.92,-350"/>
<text text-anchor="middle" x="109" y="-327.8" font-family="Times,serif" font-size="14.00">AddressModule</text>
</g>
<!-- AddressService&#45;&gt;AddressModule -->
<g id="edge1" class="edge">
<title>AddressService&#45;&gt;AddressModule</title>
<path fill="none" stroke="black" d="M109,-274.01C109,-274.01 109,-303.85 109,-303.85"/>
<polygon fill="black" stroke="black" points="105.5,-303.85 109,-313.85 112.5,-303.85 105.5,-303.85"/>
</g>
<!-- AppModule -->
<g id="node11" class="node">
<title>AppModule</title>
<polygon fill="#8dd3c7" stroke="black" points="974.66,-415 971.66,-419 950.66,-419 947.66,-415 891.34,-415 891.34,-379 974.66,-379 974.66,-415"/>
<text text-anchor="middle" x="933" y="-392.8" font-family="Times,serif" font-size="14.00">AppModule</text>
</g>
<!-- AddressModule&#45;&gt;AppModule -->
<g id="edge2" class="edge">
<title>AddressModule&#45;&gt;AppModule</title>
<path fill="none" stroke="black" d="M109,-350.29C109,-372.21 109,-406 109,-406 109,-406 881.29,-406 881.29,-406"/>
<polygon fill="black" stroke="black" points="881.29,-409.5 891.29,-406 881.29,-402.5 881.29,-409.5"/>
</g>
<!-- AuthenticationModule -->
<g id="node3" class="node">
<title>AuthenticationModule</title>
<polygon fill="#8dd3c7" stroke="black" points="1375.25,-350 1372.25,-354 1351.25,-354 1348.25,-350 1232.75,-350 1232.75,-314 1375.25,-314 1375.25,-350"/>
<text text-anchor="middle" x="1304" y="-327.8" font-family="Times,serif" font-size="14.00">AuthenticationModule</text>
</g>
<!-- AuthenticationModule&#45;&gt;AppModule -->
<g id="edge3" class="edge">
<title>AuthenticationModule&#45;&gt;AppModule</title>
<path fill="none" stroke="black" d="M1232.49,-338C1131.93,-338 960.89,-338 960.89,-338 960.89,-338 960.89,-368.98 960.89,-368.98"/>
<polygon fill="black" stroke="black" points="957.39,-368.98 960.89,-378.98 964.39,-368.98 957.39,-368.98"/>
</g>
<!-- BcryptService  -->
<g id="node14" class="node">
<title>BcryptService </title>
<polygon fill="#fb8072" stroke="black" points="1922.58,-274 1823.42,-274 1823.42,-238 1922.58,-238 1922.58,-274"/>
<text text-anchor="middle" x="1873" y="-251.8" font-family="Times,serif" font-size="14.00">BcryptService </text>
</g>
<!-- AuthenticationModule&#45;&gt;BcryptService  -->
<g id="edge14" class="edge">
<title>AuthenticationModule&#45;&gt;BcryptService </title>
<path fill="none" stroke="black" stroke-dasharray="5,2" d="M1375.49,-338C1528.31,-338 1873,-338 1873,-338 1873,-338 1873,-284.2 1873,-284.2"/>
<polygon fill="black" stroke="black" points="1876.5,-284.2 1873,-274.2 1869.5,-284.2 1876.5,-284.2"/>
</g>
<!-- JwtStorage  -->
<g id="node15" class="node">
<title>JwtStorage </title>
<polygon fill="#fb8072" stroke="black" points="1804.71,-274 1723.29,-274 1723.29,-238 1804.71,-238 1804.71,-274"/>
<text text-anchor="middle" x="1764" y="-251.8" font-family="Times,serif" font-size="14.00">JwtStorage </text>
</g>
<!-- AuthenticationModule&#45;&gt;JwtStorage  -->
<g id="edge15" class="edge">
<title>AuthenticationModule&#45;&gt;JwtStorage </title>
<path fill="none" stroke="black" stroke-dasharray="5,2" d="M1375.37,-332C1504.58,-332 1764,-332 1764,-332 1764,-332 1764,-284.01 1764,-284.01"/>
<polygon fill="black" stroke="black" points="1767.5,-284.01 1764,-274.01 1760.5,-284.01 1767.5,-284.01"/>
</g>
<!-- CategoryModule -->
<g id="node4" class="node">
<title>CategoryModule</title>
<polygon fill="#8dd3c7" stroke="black" points="724.37,-198 721.37,-202 700.37,-202 697.37,-198 613.63,-198 613.63,-162 724.37,-162 724.37,-198"/>
<text text-anchor="middle" x="669" y="-175.8" font-family="Times,serif" font-size="14.00">CategoryModule</text>
</g>
<!-- CategoryModule&#45;&gt;AppModule -->
<g id="edge4" class="edge">
<title>CategoryModule&#45;&gt;AppModule</title>
<path fill="none" stroke="black" d="M669,-198.13C669,-250.28 669,-397 669,-397 669,-397 881.17,-397 881.17,-397"/>
<polygon fill="black" stroke="black" points="881.17,-400.5 891.17,-397 881.17,-393.5 881.17,-400.5"/>
</g>
<!-- CoursesModule -->
<g id="node5" class="node">
<title>CoursesModule</title>
<polygon fill="#8dd3c7" stroke="black" points="847.15,-198 844.15,-202 823.15,-202 820.15,-198 742.85,-198 742.85,-162 847.15,-162 847.15,-198"/>
<text text-anchor="middle" x="795" y="-175.8" font-family="Times,serif" font-size="14.00">CoursesModule</text>
</g>
<!-- CoursesModule&#45;&gt;AppModule -->
<g id="edge5" class="edge">
<title>CoursesModule&#45;&gt;AppModule</title>
<path fill="none" stroke="black" d="M795,-198.09C795,-248.7 795,-388 795,-388 795,-388 881.22,-388 881.22,-388"/>
<polygon fill="black" stroke="black" points="881.22,-391.5 891.22,-388 881.22,-384.5 881.22,-391.5"/>
</g>
<!-- EducationModule -->
<g id="node6" class="node">
<title>EducationModule</title>
<polygon fill="#8dd3c7" stroke="black" points="981.31,-198 978.31,-202 957.31,-202 954.31,-198 864.69,-198 864.69,-162 981.31,-162 981.31,-198"/>
<text text-anchor="middle" x="923" y="-175.8" font-family="Times,serif" font-size="14.00">EducationModule</text>
</g>
<!-- EducationModule&#45;&gt;AppModule -->
<g id="edge6" class="edge">
<title>EducationModule&#45;&gt;AppModule</title>
<path fill="none" stroke="black" d="M919.06,-198.13C919.06,-198.13 919.06,-368.77 919.06,-368.77"/>
<polygon fill="black" stroke="black" points="915.56,-368.77 919.06,-378.77 922.56,-368.77 915.56,-368.77"/>
</g>
<!-- ExperienceModule -->
<g id="node7" class="node">
<title>ExperienceModule</title>
<polygon fill="#8dd3c7" stroke="black" points="1121.01,-198 1118.01,-202 1097.01,-202 1094.01,-198 998.99,-198 998.99,-162 1121.01,-162 1121.01,-198"/>
<text text-anchor="middle" x="1060" y="-175.8" font-family="Times,serif" font-size="14.00">ExperienceModule</text>
</g>
<!-- ExperienceModule&#45;&gt;AppModule -->
<g id="edge7" class="edge">
<title>ExperienceModule&#45;&gt;AppModule</title>
<path fill="none" stroke="black" d="M1104.62,-198.36C1104.62,-249.69 1104.62,-391 1104.62,-391 1104.62,-391 984.98,-391 984.98,-391"/>
<polygon fill="black" stroke="black" points="984.98,-387.5 974.98,-391 984.98,-394.5 984.98,-387.5"/>
</g>
<!-- ImageModule -->
<g id="node8" class="node">
<title>ImageModule</title>
<polygon fill="#8dd3c7" stroke="black" points="1234.03,-198 1231.03,-202 1210.03,-202 1207.03,-198 1139.97,-198 1139.97,-162 1234.03,-162 1234.03,-198"/>
<text text-anchor="middle" x="1187" y="-175.8" font-family="Times,serif" font-size="14.00">ImageModule</text>
</g>
<!-- ImageModule&#45;&gt;AppModule -->
<g id="edge8" class="edge">
<title>ImageModule&#45;&gt;AppModule</title>
<path fill="none" stroke="black" d="M1186.18,-198.25C1186.18,-251.51 1186.18,-403 1186.18,-403 1186.18,-403 984.81,-403 984.81,-403"/>
<polygon fill="black" stroke="black" points="984.81,-399.5 974.81,-403 984.81,-406.5 984.81,-399.5"/>
</g>
<!-- UserModule -->
<g id="node9" class="node">
<title>UserModule</title>
<polygon fill="#8dd3c7" stroke="black" points="1087.98,-274 1084.98,-278 1063.98,-278 1060.98,-274 1002.02,-274 1002.02,-238 1087.98,-238 1087.98,-274"/>
<text text-anchor="middle" x="1045" y="-251.8" font-family="Times,serif" font-size="14.00">UserModule</text>
</g>
<!-- UserModule&#45;&gt;AuthenticationModule -->
<g id="edge13" class="edge">
<title>UserModule&#45;&gt;AuthenticationModule</title>
<path fill="none" stroke="black" d="M1088,-262C1145.67,-262 1240.92,-262 1240.92,-262 1240.92,-262 1240.92,-303.97 1240.92,-303.97"/>
<polygon fill="black" stroke="black" points="1237.42,-303.97 1240.92,-313.97 1244.42,-303.97 1237.42,-303.97"/>
</g>
<!-- UserModule&#45;&gt;AppModule -->
<g id="edge9" class="edge">
<title>UserModule&#45;&gt;AppModule</title>
<path fill="none" stroke="black" d="M1001.99,-265C975.64,-265 946.94,-265 946.94,-265 946.94,-265 946.94,-368.92 946.94,-368.92"/>
<polygon fill="black" stroke="black" points="943.44,-368.92 946.94,-378.92 950.44,-368.92 943.44,-368.92"/>
</g>
<!-- UserService  -->
<g id="node24" class="node">
<title>UserService </title>
<polygon fill="#fb8072" stroke="black" points="435.9,-350 348.1,-350 348.1,-314 435.9,-314 435.9,-350"/>
<text text-anchor="middle" x="392" y="-327.8" font-family="Times,serif" font-size="14.00">UserService </text>
</g>
<!-- UserModule&#45;&gt;UserService  -->
<g id="edge25" class="edge">
<title>UserModule&#45;&gt;UserService </title>
<path fill="none" stroke="black" stroke-dasharray="5,2" d="M1001.9,-256C856.34,-256 392,-256 392,-256 392,-256 392,-303.99 392,-303.99"/>
<polygon fill="black" stroke="black" points="388.5,-303.99 392,-313.99 395.5,-303.99 388.5,-303.99"/>
</g>
<!-- UserdetailsModule -->
<g id="node10" class="node">
<title>UserdetailsModule</title>
<polygon fill="#8dd3c7" stroke="black" points="1375.02,-198 1372.02,-202 1351.02,-202 1348.02,-198 1252.98,-198 1252.98,-162 1375.02,-162 1375.02,-198"/>
<text text-anchor="middle" x="1314" y="-175.8" font-family="Times,serif" font-size="14.00">UserdetailsModule</text>
</g>
<!-- UserdetailsModule&#45;&gt;UserModule -->
<g id="edge24" class="edge">
<title>UserdetailsModule&#45;&gt;UserModule</title>
<path fill="none" stroke="black" d="M1334.42,-198.03C1334.42,-218.77 1334.42,-250 1334.42,-250 1334.42,-250 1098.02,-250 1098.02,-250"/>
<polygon fill="black" stroke="black" points="1098.02,-246.5 1088.02,-250 1098.02,-253.5 1098.02,-246.5"/>
</g>
<!-- UserdetailsModule&#45;&gt;AppModule -->
<g id="edge10" class="edge">
<title>UserdetailsModule&#45;&gt;AppModule</title>
<path fill="none" stroke="black" d="M1293.58,-198.11C1293.58,-207.9 1293.58,-218 1293.58,-218 1293.58,-218 933,-218 933,-218 933,-218 933,-368.85 933,-368.85"/>
<polygon fill="black" stroke="black" points="929.5,-368.85 933,-378.85 936.5,-368.85 929.5,-368.85"/>
</g>
<!-- AppService -->
<g id="node12" class="node">
<title>AppService</title>
<ellipse fill="#fdb462" stroke="black" cx="533" cy="-332" rx="56.74" ry="18"/>
<text text-anchor="middle" x="533" y="-327.8" font-family="Times,serif" font-size="14.00">AppService</text>
</g>
<!-- AppService&#45;&gt;AppModule -->
<g id="edge11" class="edge">
<title>AppService&#45;&gt;AppModule</title>
<path fill="none" stroke="black" d="M586.71,-326C689.76,-326 905.11,-326 905.11,-326 905.11,-326 905.11,-368.72 905.11,-368.72"/>
<polygon fill="black" stroke="black" points="901.61,-368.72 905.11,-378.72 908.61,-368.72 901.61,-368.72"/>
</g>
<!-- CoreModule -->
<g id="node13" class="node">
<title>CoreModule</title>
<polygon fill="#8dd3c7" stroke="black" points="2033.26,-274 2030.26,-278 2009.26,-278 2006.26,-274 1946.74,-274 1946.74,-238 2033.26,-238 2033.26,-274"/>
<text text-anchor="middle" x="1990" y="-251.8" font-family="Times,serif" font-size="14.00">CoreModule</text>
</g>
<!-- CoreModule&#45;&gt;AuthenticationModule -->
<g id="edge12" class="edge">
<title>CoreModule&#45;&gt;AuthenticationModule</title>
<path fill="none" stroke="black" d="M1990,-274.23C1990,-300.01 1990,-344 1990,-344 1990,-344 1385.47,-344 1385.47,-344"/>
<polygon fill="black" stroke="black" points="1385.47,-340.5 1375.47,-344 1385.47,-347.5 1385.47,-340.5"/>
</g>
<!-- DatabaseStrategy -->
<g id="node16" class="node">
<title>DatabaseStrategy</title>
<ellipse fill="#fdb462" stroke="black" cx="1620" cy="-256" rx="78.71" ry="18"/>
<text text-anchor="middle" x="1620" y="-251.8" font-family="Times,serif" font-size="14.00">DatabaseStrategy</text>
</g>
<!-- DatabaseStrategy&#45;&gt;AuthenticationModule -->
<g id="edge16" class="edge">
<title>DatabaseStrategy&#45;&gt;AuthenticationModule</title>
<path fill="none" stroke="black" d="M1620,-274.03C1620,-294.77 1620,-326 1620,-326 1620,-326 1385.31,-326 1385.31,-326"/>
<polygon fill="black" stroke="black" points="1385.31,-322.5 1375.31,-326 1385.31,-329.5 1385.31,-322.5"/>
</g>
<!-- JwtStorage -->
<g id="node17" class="node">
<title>JwtStorage</title>
<ellipse fill="#fdb462" stroke="black" cx="1469" cy="-256" rx="53.89" ry="18"/>
<text text-anchor="middle" x="1469" y="-251.8" font-family="Times,serif" font-size="14.00">JwtStorage</text>
</g>
<!-- JwtStorage&#45;&gt;AuthenticationModule -->
<g id="edge17" class="edge">
<title>JwtStorage&#45;&gt;AuthenticationModule</title>
<path fill="none" stroke="black" d="M1469,-274.17C1469,-293.09 1469,-320 1469,-320 1469,-320 1385.41,-320 1385.41,-320"/>
<polygon fill="black" stroke="black" points="1385.41,-316.5 1375.41,-320 1385.41,-323.5 1385.41,-316.5"/>
</g>
<!-- CategoryService -->
<g id="node18" class="node">
<title>CategoryService</title>
<ellipse fill="#fdb462" stroke="black" cx="547" cy="-104" rx="75.28" ry="18"/>
<text text-anchor="middle" x="547" y="-99.8" font-family="Times,serif" font-size="14.00">CategoryService</text>
</g>
<!-- CategoryService&#45;&gt;CategoryModule -->
<g id="edge18" class="edge">
<title>CategoryService&#45;&gt;CategoryModule</title>
<path fill="none" stroke="black" d="M617.98,-110.22C617.98,-110.22 617.98,-151.76 617.98,-151.76"/>
<polygon fill="black" stroke="black" points="614.48,-151.76 617.98,-161.76 621.48,-151.76 614.48,-151.76"/>
</g>
<!-- ResponseTransformInterceptor -->
<g id="node19" class="node">
<title>ResponseTransformInterceptor</title>
<ellipse fill="#fdb462" stroke="black" cx="1990" cy="-180" rx="131.32" ry="18"/>
<text text-anchor="middle" x="1990" y="-175.8" font-family="Times,serif" font-size="14.00">ResponseTransformInterceptor</text>
</g>
<!-- ResponseTransformInterceptor&#45;&gt;CoreModule -->
<g id="edge19" class="edge">
<title>ResponseTransformInterceptor&#45;&gt;CoreModule</title>
<path fill="none" stroke="black" d="M1990,-198.01C1990,-198.01 1990,-227.85 1990,-227.85"/>
<polygon fill="black" stroke="black" points="1986.5,-227.85 1990,-237.85 1993.5,-227.85 1986.5,-227.85"/>
</g>
<!-- CoursesService -->
<g id="node20" class="node">
<title>CoursesService</title>
<ellipse fill="#fdb462" stroke="black" cx="733" cy="-104" rx="71.2" ry="18"/>
<text text-anchor="middle" x="733" y="-99.8" font-family="Times,serif" font-size="14.00">CoursesService</text>
</g>
<!-- CoursesService&#45;&gt;CoursesModule -->
<g id="edge20" class="edge">
<title>CoursesService&#45;&gt;CoursesModule</title>
<path fill="none" stroke="black" d="M773.39,-119.02C773.39,-119.02 773.39,-151.8 773.39,-151.8"/>
<polygon fill="black" stroke="black" points="769.89,-151.8 773.39,-161.8 776.89,-151.8 769.89,-151.8"/>
</g>
<!-- EducationService -->
<g id="node21" class="node">
<title>EducationService</title>
<ellipse fill="#fdb462" stroke="black" cx="923" cy="-104" rx="79.29" ry="18"/>
<text text-anchor="middle" x="923" y="-99.8" font-family="Times,serif" font-size="14.00">EducationService</text>
</g>
<!-- EducationService&#45;&gt;EducationModule -->
<g id="edge21" class="edge">
<title>EducationService&#45;&gt;EducationModule</title>
<path fill="none" stroke="black" d="M923,-122.01C923,-122.01 923,-151.85 923,-151.85"/>
<polygon fill="black" stroke="black" points="919.5,-151.85 923,-161.85 926.5,-151.85 919.5,-151.85"/>
</g>
<!-- ExperienceService -->
<g id="node22" class="node">
<title>ExperienceService</title>
<ellipse fill="#fdb462" stroke="black" cx="1125" cy="-104" rx="83.34" ry="18"/>
<text text-anchor="middle" x="1125" y="-99.8" font-family="Times,serif" font-size="14.00">ExperienceService</text>
</g>
<!-- ExperienceService&#45;&gt;ExperienceModule -->
<g id="edge22" class="edge">
<title>ExperienceService&#45;&gt;ExperienceModule</title>
<path fill="none" stroke="black" d="M1081.42,-119.38C1081.42,-119.38 1081.42,-151.97 1081.42,-151.97"/>
<polygon fill="black" stroke="black" points="1077.92,-151.97 1081.42,-161.97 1084.92,-151.97 1077.92,-151.97"/>
</g>
<!-- UserdetailsService -->
<g id="node23" class="node">
<title>UserdetailsService</title>
<ellipse fill="#fdb462" stroke="black" cx="1331" cy="-104" rx="83.36" ry="18"/>
<text text-anchor="middle" x="1331" y="-99.8" font-family="Times,serif" font-size="14.00">UserdetailsService</text>
</g>
<!-- UserdetailsService&#45;&gt;UserdetailsModule -->
<g id="edge23" class="edge">
<title>UserdetailsService&#45;&gt;UserdetailsModule</title>
<path fill="none" stroke="black" d="M1314,-121.63C1314,-121.63 1314,-151.94 1314,-151.94"/>
<polygon fill="black" stroke="black" points="1310.5,-151.94 1314,-161.94 1317.5,-151.94 1310.5,-151.94"/>
</g>
<!-- UserService -->
<g id="node25" class="node">
<title>UserService</title>
<ellipse fill="#fdb462" stroke="black" cx="266" cy="-332" rx="58.44" ry="18"/>
<text text-anchor="middle" x="266" y="-327.8" font-family="Times,serif" font-size="14.00">UserService</text>
</g>
<!-- UserService&#45;&gt;UserModule -->
<g id="edge26" class="edge">
<title>UserService&#45;&gt;UserModule</title>
<path fill="none" stroke="black" d="M266,-313.97C266,-289.02 266,-247 266,-247 266,-247 992.01,-247 992.01,-247"/>
<polygon fill="black" stroke="black" points="992.01,-250.5 1002.01,-247 992.01,-243.5 992.01,-250.5"/>
</g>
</g>
</svg>
